<svg xmlns="http://www.w3.org/2000/svg" xmlns:xlink="http://www.w3.org/1999/xlink" width="40" zoomAndPan="magnify" viewBox="0 0 30 30.000001" height="40" preserveAspectRatio="xMidYMid meet" version="1.0"><defs><clipPath id="id1"><path d="M 0.484375 0 L 29.515625 0 L 29.515625 29.03125 L 0.484375 29.03125 Z M 0.484375 0 " clip-rule="nonzero"/></clipPath><clipPath id="id2"><path d="M 3.386719 2.902344 L 26.613281 2.902344 L 26.613281 26.128906 L 3.386719 26.128906 Z M 3.386719 2.902344 " clip-rule="nonzero"/></clipPath><clipPath id="id3"><path d="M 6.339844 5.101562 L 23.757812 5.101562 L 23.757812 23.964844 L 6.339844 23.964844 Z M 6.339844 5.101562 " clip-rule="nonzero"/></clipPath></defs><g clip-path="url(#id1)"><path fill="#ffffff" d="M 0.484375 0 L 29.515625 0 L 29.515625 36.289062 L 0.484375 36.289062 Z M 0.484375 0 " fill-opacity="1" fill-rule="nonzero"/><path fill="#032841" d="M 0.484375 0 L 29.515625 0 L 29.515625 29.03125 L 0.484375 29.03125 Z M 0.484375 0 " fill-opacity="1" fill-rule="nonzero"/><path fill="#ffffff" d="M 0.484375 0 L 29.515625 0 L 29.515625 29.03125 L 0.484375 29.03125 Z M 0.484375 0 " fill-opacity="1" fill-rule="nonzero"/><path fill="#032841" d="M 0.484375 0 L 29.515625 0 L 29.515625 29.03125 L 0.484375 29.03125 Z M 0.484375 0 " fill-opacity="1" fill-rule="nonzero"/></g><g clip-path="url(#id2)"><path fill="#004aad" d="M 15 2.902344 C 14.238281 2.902344 13.480469 2.976562 12.734375 3.125 C 11.988281 3.273438 11.261719 3.496094 10.554688 3.789062 C 9.851562 4.078125 9.183594 4.4375 8.546875 4.859375 C 7.914062 5.285156 7.328125 5.765625 6.789062 6.304688 C 6.25 6.84375 5.769531 7.429688 5.34375 8.0625 C 4.921875 8.699219 4.5625 9.367188 4.269531 10.070312 C 3.980469 10.777344 3.757812 11.503906 3.609375 12.25 C 3.460938 13 3.386719 13.753906 3.386719 14.515625 C 3.386719 15.277344 3.460938 16.035156 3.609375 16.78125 C 3.757812 17.53125 3.980469 18.253906 4.269531 18.960938 C 4.5625 19.664062 4.921875 20.332031 5.34375 20.96875 C 5.769531 21.601562 6.25 22.1875 6.789062 22.726562 C 7.328125 23.265625 7.914062 23.75 8.546875 24.171875 C 9.183594 24.59375 9.851562 24.953125 10.554688 25.246094 C 11.261719 25.535156 11.988281 25.757812 12.734375 25.90625 C 13.480469 26.054688 14.238281 26.128906 15 26.128906 C 15.761719 26.128906 16.519531 26.054688 17.265625 25.90625 C 18.011719 25.757812 18.738281 25.535156 19.445312 25.246094 C 20.148438 24.953125 20.816406 24.59375 21.453125 24.171875 C 22.085938 23.75 22.671875 23.265625 23.210938 22.726562 C 23.75 22.1875 24.230469 21.601562 24.65625 20.96875 C 25.078125 20.332031 25.4375 19.664062 25.730469 18.960938 C 26.019531 18.253906 26.242188 17.53125 26.390625 16.78125 C 26.539062 16.035156 26.613281 15.277344 26.613281 14.515625 C 26.613281 13.753906 26.539062 13 26.390625 12.25 C 26.242188 11.503906 26.019531 10.777344 25.730469 10.070312 C 25.4375 9.367188 25.078125 8.699219 24.65625 8.0625 C 24.230469 7.429688 23.75 6.84375 23.210938 6.304688 C 22.671875 5.765625 22.085938 5.285156 21.453125 4.859375 C 20.816406 4.4375 20.148438 4.078125 19.445312 3.789062 C 18.738281 3.496094 18.011719 3.273438 17.265625 3.125 C 16.519531 2.976562 15.761719 2.902344 15 2.902344 Z M 15 2.902344 " fill-opacity="1" fill-rule="nonzero"/></g><g clip-path="url(#id3)"><path fill="#1b1b18" d="M 23.695312 11.425781 C 23.542969 10.988281 23.125 10.609375 22.65625 10.609375 L 18.308594 10.609375 L 22.015625 7.089844 C 22.335938 6.78125 22.4375 6.253906 22.269531 5.839844 C 22.097656 5.425781 21.695312 5.101562 21.246094 5.101562 L 13.726562 5.101562 C 13.382812 5.101562 13.058594 5.359375 12.851562 5.632812 L 6.566406 13.90625 C 6.3125 14.238281 6.269531 14.660156 6.453125 15.03125 C 6.640625 15.40625 7.023438 15.617188 7.441406 15.617188 L 11.6875 15.617188 C 11.699219 15.617188 11.714844 15.714844 11.730469 15.738281 L 8.03125 22.300781 C 7.773438 22.761719 7.875 23.351562 8.277344 23.691406 C 8.484375 23.863281 8.738281 23.957031 8.992188 23.957031 C 9.234375 23.957031 9.480469 23.878906 9.683594 23.714844 L 23.351562 12.6875 C 23.714844 12.394531 23.851562 11.863281 23.695312 11.425781 Z M 23.695312 11.425781 " fill-opacity="1" fill-rule="nonzero"/></g></svg>